<svg width="23" height="23" viewBox="0 0 23 23" fill="none" xmlns="http://www.w3.org/2000/svg">
<g clip-path="url(#clip0_2_128)">
<path d="M6.31442 5.01825L5.01825 3.72208C4.66075 3.36412 4.07958 3.36412 3.72208 3.72208C3.36412 4.08004 3.36412 4.66029 3.72208 5.01825L5.01825 6.31442C5.197 6.49362 5.43167 6.583 5.66633 6.583C5.901 6.583 6.13567 6.49362 6.31442 6.31442C6.67237 5.95646 6.67237 5.37621 6.31442 5.01825Z" fill="#1A1A1A"/>
<path d="M3.25 10.5833H1.41667C0.910667 10.5833 0.5 10.994 0.5 11.5C0.5 12.006 0.910667 12.4167 1.41667 12.4167H3.25C3.756 12.4167 4.16667 12.006 4.16667 11.5C4.16667 10.994 3.756 10.5833 3.25 10.5833Z" fill="#1A1A1A"/>
<path d="M6.31442 16.6856C5.95692 16.3276 5.37575 16.3276 5.01825 16.6856L3.72208 17.9817C3.36412 18.3397 3.36412 18.92 3.72208 19.2779C3.90083 19.4571 4.1355 19.5465 4.37017 19.5465C4.60483 19.5465 4.8395 19.4571 5.01825 19.2779L6.31442 17.9817C6.67237 17.6238 6.67237 17.0435 6.31442 16.6856Z" fill="#1A1A1A"/>
<path d="M11.5 18.8333C10.994 18.8333 10.5833 19.244 10.5833 19.75V21.5833C10.5833 22.0893 10.994 22.5 11.5 22.5C12.006 22.5 12.4166 22.0893 12.4166 21.5833V19.75C12.4166 19.244 12.006 18.8333 11.5 18.8333Z" fill="#1A1A1A"/>
<path d="M19.2779 17.9817L17.9817 16.6856C17.6242 16.3276 17.0431 16.3276 16.6856 16.6856C16.3276 17.0435 16.3276 17.6238 16.6856 17.9817L17.9817 19.2779C18.1605 19.4571 18.3952 19.5465 18.6298 19.5465C18.8645 19.5465 19.0992 19.4571 19.2779 19.2779C19.6359 18.92 19.6359 18.3397 19.2779 17.9817Z" fill="#1A1A1A"/>
<path d="M21.5833 10.5833H19.75C19.244 10.5833 18.8333 10.994 18.8333 11.5C18.8333 12.006 19.244 12.4167 19.75 12.4167H21.5833C22.0893 12.4167 22.5 12.006 22.5 11.5C22.5 10.994 22.0893 10.5833 21.5833 10.5833Z" fill="#1A1A1A"/>
<path d="M19.2779 3.72208C18.9204 3.36412 18.3392 3.36412 17.9817 3.72208L16.6856 5.01825C16.3276 5.37621 16.3276 5.95646 16.6856 6.31442C16.8643 6.49362 17.099 6.583 17.3337 6.583C17.5683 6.583 17.803 6.49362 17.9817 6.31442L19.2779 5.01825C19.6359 4.66029 19.6359 4.08004 19.2779 3.72208Z" fill="#1A1A1A"/>
<path d="M11.5 0.5C10.994 0.5 10.5833 0.910667 10.5833 1.41667V3.25C10.5833 3.756 10.994 4.16667 11.5 4.16667C12.006 4.16667 12.4166 3.756 12.4166 3.25V1.41667C12.4166 0.910667 12.006 0.5 11.5 0.5Z" fill="#1A1A1A"/>
<path d="M11.5 5.54166C8.21469 5.54166 5.54169 8.21466 5.54169 11.5C5.54169 14.7853 8.21469 17.4583 11.5 17.4583C14.7854 17.4583 17.4584 14.7853 17.4584 11.5C17.4584 8.21466 14.7854 5.54166 11.5 5.54166ZM11.5 15.625C9.22577 15.625 7.37502 13.7742 7.37502 11.5C7.37502 9.22574 9.22577 7.37499 11.5 7.37499C13.7743 7.37499 15.625 9.22574 15.625 11.5C15.625 13.7742 13.7743 15.625 11.5 15.625Z" fill="#1A1A1A"/>
</g>
<defs>
<clipPath id="clip0_2_128">
<rect width="22" height="22" fill="white" transform="translate(0.5 0.5)"/>
</clipPath>
</defs>
</svg>
